<?xml version="1.0" encoding="UTF-8"?>
<svg id="Layer_2" data-name="Layer 2" xmlns="http://www.w3.org/2000/svg" viewBox="0 0 32.78 32.78">
  <defs>
    <style>
      .cls-1 {
        fill: #fffcf5;
      }

      .cls-2 {
        fill: #5b3795;
        stroke: #5b3795;
      }

      .cls-2, .cls-3 {
        stroke-miterlimit: 10;
      }

      .cls-3 {
        fill: #faa856;
        stroke: #faa85a;
      }
    </style>
  </defs>
  <g id="Layer_1-2" data-name="Layer 1">
    <circle class="cls-3" cx="16.39" cy="16.39" r="15.89"/>
    <path class="cls-2" d="M24.5,11.01h-3.63c-.17,0-.31-.14-.31-.31v-1.49c0-.29-.24-.53-.53-.53h-7.29c-.29,0-.53.24-.53.53v1.44c0,.2-.16.36-.36.36h-3.58c-.59,0-1.08.48-1.08,1.08v9.7c0,.59.48,1.08,1.08,1.08h16.23c.59,0,1.08-.48,1.08-1.08v-9.7c0-.59-.48-1.08-1.08-1.08Z"/>
    <path class="cls-1" d="M16.39,12.56c-2.12,0-3.84,1.72-3.84,3.83s1.72,3.83,3.84,3.83,3.83-1.71,3.83-3.83-1.72-3.83-3.83-3.83ZM16.39,19.12c-1.51,0-2.74-1.22-2.74-2.74s1.22-2.74,2.74-2.74,2.73,1.22,2.73,2.74-1.22,2.74-2.73,2.74Z"/>
  </g>
</svg>