<?xml version="1.0" encoding="UTF-8"?>
<svg id="Layer_2" data-name="Layer 2" xmlns="http://www.w3.org/2000/svg" viewBox="0 0 33.93 28.64">
  <defs>
    <style>
      .cls-1 {
        fill: #5b3795;
      }

      .cls-2 {
        fill: #be2b4c;
      }

      .cls-3 {
        fill: #faa855;
      }
    </style>
  </defs>
  <g id="Layer_1-2" data-name="Layer 1">
    <path class="cls-1" d="M19.23,4.69c.75-.38.98-.5,1.87-.73-2.16-1.47-4.77-2.33-7.58-2.33l5.71,5.71v-2.65Z"/>
    <path class="cls-1" d="M23.01,13.53c.09.52.14,1.06.14,1.61,0,5.33-4.32,9.65-9.63,9.65S3.87,20.46,3.87,15.14,8.19,5.49,13.52,5.49c2.14,0,4.11.71,5.71,1.89v-.04L13.52,1.63C6.05,1.63,0,7.69,0,15.14s6.05,13.5,13.52,13.5,13.66-6.44,13.66-13.9l.07-1.96c-.59.77-1.98,1.71-1.98,1.71,0,0-1.42-.19-2.26-.96Z"/>
    <path class="cls-2" d="M24.92,12.52l9-5.81s0-.04-.01-.04l-7.16.02L28.8.03s-.02-.04-.03-.03l-8.07,5.81c-.1.07-.17.18-.19.31l-.65,4.26c-.02.12-.08.23-.18.3l-5.13,3.41s-.05.09-.02.14l.38.57s.1.06.15.02l4.97-3.35c.12-.09.27-.12.41-.08l4.12,1.17c.13.04.26.02.37-.05Z"/>
    <path class="cls-3" d="M18.4,13.88l-.19-.3-3.44,2.07c-.13.08-.29.04-.37-.09l-.85-1.39c-.06-.1-.03-.23.07-.29l3.49-2.2-.39-.44c-1.1-.91-2.6-1.36-4.2-1.06-2.03.39-3.66,2.07-3.99,4.11-.55,3.43,2.35,6.35,5.78,5.82,2.1-.32,3.82-2.02,4.17-4.11.12-.74.09-1.46-.08-2.13Z"/>
  </g>
</svg>